<?xml version="1.0" encoding="UTF-8" standalone="no"?>
<svg
   width="400"
   height="400"
   version="1.0"
   id="svg2"
   sodipodi:docname="favicon.svg"
   inkscape:version="1.3.2 (091e20e, 2023-11-25)"
   xmlns:inkscape="http://www.inkscape.org/namespaces/inkscape"
   xmlns:sodipodi="http://sodipodi.sourceforge.net/DTD/sodipodi-0.dtd"
   xmlns="http://www.w3.org/2000/svg"
   xmlns:svg="http://www.w3.org/2000/svg">
  <defs
     id="defs2" />
  <sodipodi:namedview
     id="namedview2"
     pagecolor="#ffffff"
     bordercolor="#000000"
     borderopacity="0.25"
     inkscape:showpageshadow="2"
     inkscape:pageopacity="0.0"
     inkscape:pagecheckerboard="0"
     inkscape:deskcolor="#d1d1d1"
     inkscape:zoom="1.2525"
     inkscape:cx="155.28942"
     inkscape:cy="218.76248"
     inkscape:window-width="1440"
     inkscape:window-height="847"
     inkscape:window-x="0"
     inkscape:window-y="25"
     inkscape:window-maximized="0"
     inkscape:current-layer="svg2"
     showguides="true"
     showgrid="false"
     inkscape:clip-to-page="true" />
  <path
     fill-rule="evenodd"
     d="M 0,0 H 400 V 399.99999 H 0 Z"
     color="#000000"
     overflow="visible"
     style="stroke-width:1.00753;marker:none"
     id="path1" />
  <g
     style="line-height:125%;-inkscape-font-specification:Tahoma;text-align:start"
     id="g2"
     transform="matrix(1.1246239,0,0,1.3180189,-59.381112,-28.73529)">
    <path
       fill="#ffffff"
       d="M 188.61116,282.27991 H 164.27105 L 129.25344,211.90025 93.661767,282.27991 H 70.584586 L 116.96857,194.33404 71.617893,106.7326 h 24.340111 l 34.099116,68.88711 34.78799,-68.88711 h 23.19199 l -45.5803,86.33851 z m 107.00465,-36.28054 c -1.1e-4,6.65907 -1.68402,13.26074 -5.05172,19.80504 -3.36792,6.54424 -7.27152,12.03607 -11.71081,16.4755 h -20.55132 v -1.60736 c 2.29616,-2.06666 4.63067,-4.36289 7.00352,-6.88871 2.3727,-2.5259 4.3245,-4.97522 5.8554,-7.34796 1.91345,-3.06168 3.25292,-5.87457 4.01842,-8.43867 0.76532,-2.56415 1.14803,-5.22396 1.14812,-7.97943 -9e-5,-4.13323 -1.0334,-7.71153 -3.09992,-10.7349 -2.0667,-3.02338 -4.78391,-4.53507 -8.15164,-4.53507 h -14.00705 c -3.82712,0 -7.5585,-0.13395 -11.19415,-0.40184 -3.63576,-0.2679 -7.32887,-0.89936 -11.07935,-1.8944 -3.59747,-0.91849 -7.02269,-2.18142 -10.27566,-3.78879 -3.25303,-1.60736 -6.37208,-3.82705 -9.35716,-6.65909 -4.82212,-4.66899 -8.45782,-9.85466 -10.90713,-15.557 -2.44933,-5.70229 -3.67398,-11.95953 -3.67398,-18.77174 0,-11.32804 3.13818,-20.95309 9.41457,-28.87518 6.27636,-7.92193 15.92055,-13.60511 28.93259,-17.04956 v -1.26293 c -4.28635,-0.99494 -8.17081,-2.52576 -11.6534,-4.59247 -3.48266,-2.06651 -6.52517,-4.51583 -9.12754,-7.34796 -2.60243,-2.83191 -4.66904,-6.18059 -6.19984,-10.04603 -1.53085,-3.86522 -2.29626,-7.90276 -2.29624,-12.11265 -2e-5,-3.52077 0.44009,-6.735497 1.32033,-9.644199 0.88021,-2.908426 2.23882,-5.81699 4.07583,-8.725701 1.5308,-2.372628 3.4826,-4.668863 5.8554,-6.88871 2.37275,-2.21954 5.01342,-4.362692 7.92202,-6.429464 V 74.011225 H 198.14055 V 56.330201 h 88.40512 v 18.140272 h -25.71785 c -10.94546,1.6e-4 -19.51807,2.774777 -25.71786,8.323859 -6.19988,5.549385 -9.29979,12.878201 -9.29976,21.986468 -3e-5,6.12342 1.16722,11.06033 3.50177,14.81073 2.33446,3.75063 5.26216,6.58265 8.7831,8.49607 3.29122,1.8371 7.09914,3.15743 11.42378,3.96101 4.32451,0.80379 9.20401,1.20563 14.63851,1.20553 h 16.53291 v 18.94395 h -29.96589 c -9.03192,8e-5 -16.91566,3.06173 -23.65125,9.18495 -6.73566,6.12337 -10.10347,13.81575 -10.10344,23.07718 -3e-5,8.03687 1.39685,14.19843 4.19063,18.48471 2.79372,4.28633 6.41029,7.34798 10.84972,9.18495 4.43935,1.91355 9.49106,3.00426 15.15517,3.27213 5.66398,0.26792 11.63419,0.40186 17.91065,0.40184 h 1.72217 c 8.64908,2e-5 15.61432,2.83205 20.89576,8.49608 5.28124,5.66406 7.92191,12.8972 7.92202,21.69944 z m 95.29383,-120.208 h -63.49095 v 49.36909 h 60.1614 v 40.52858 h -21.58462 v -21.46981 h -38.57678 v 88.06068 H 305.83406 V 106.7326 h 85.07558 z"
       font-family="Tahoma"
       font-size="235.135px"
       font-weight="400"
       style="line-height:125%;-inkscape-font-specification:Tahoma"
       id="path2" />
  </g>
</svg>
